<svg xmlns="http://www.w3.org/2000/svg" xmlns:xlink="http://www.w3.org/1999/xlink" version="1.1" width="256" height="256" viewBox="0 0 256 256" xml:space="preserve">
<desc>Created with Fabric.js 1.7.22</desc>
<defs>
</defs>
<g transform="translate(128 128) scale(0.83 0.83)" style="">
	<g style="stroke: none; stroke-width: 0; stroke-dasharray: none; stroke-linecap: butt; stroke-linejoin: miter; stroke-miterlimit: 10; fill: none; fill-rule: nonzero; opacity: 1;" transform="translate(-152.55 -152.55000000000004) scale(3.39 3.39)" >
	<path d="M 38.608 34.788 c -1.203 0 -2.391 -0.551 -3.161 -1.593 c -1.29 -1.744 -0.922 -4.204 0.822 -5.494 l 11.837 -8.758 c 1.092 -0.808 2.525 -0.995 3.787 -0.492 l 14.893 5.92 c 2.016 0.801 3.001 3.085 2.199 5.102 c -0.801 2.017 -3.086 3 -5.101 2.2 l -12.862 -5.112 l -10.08 7.458 C 40.239 34.537 39.42 34.788 38.608 34.788 z" style="stroke: none; stroke-width: 1; stroke-dasharray: none; stroke-linecap: butt; stroke-linejoin: miter; stroke-miterlimit: 10; fill: rgb(153,1,1); fill-rule: nonzero; opacity: 1;" transform=" matrix(1 0 0 1 0 0) " stroke-linecap="round" />
	<path d="M 20.115 74.459 c -1.237 0 -2.455 -0.582 -3.219 -1.673 c -1.246 -1.776 -0.816 -4.226 0.96 -5.472 l 15.626 -10.962 l 5.916 -11.901 c 0.966 -1.943 3.325 -2.733 5.266 -1.77 c 1.943 0.966 2.735 3.324 1.77 5.266 l -6.36 12.795 c -0.292 0.587 -0.726 1.091 -1.262 1.467 L 22.368 73.746 C 21.681 74.228 20.894 74.459 20.115 74.459 z" style="stroke: none; stroke-width: 1; stroke-dasharray: none; stroke-linecap: butt; stroke-linejoin: miter; stroke-miterlimit: 10; fill: rgb(153,1,1); fill-rule: nonzero; opacity: 1;" transform=" matrix(1 0 0 1 0 0) " stroke-linecap="round" />
	<path d="M 42.918 50.129 c -1.144 0 -2.277 -0.497 -3.054 -1.454 c -1.367 -1.685 -1.108 -4.159 0.577 -5.526 l 22.419 -18.18 c 1.685 -1.364 4.159 -1.108 5.526 0.577 c 1.366 1.686 1.108 4.159 -0.577 5.526 L 45.39 49.251 C 44.662 49.842 43.787 50.129 42.918 50.129 z" style="stroke: none; stroke-width: 1; stroke-dasharray: none; stroke-linecap: butt; stroke-linejoin: miter; stroke-miterlimit: 10; fill: rgb(255,0,0); fill-rule: nonzero; opacity: 1;" transform=" matrix(1 0 0 1 0 0) " stroke-linecap="round" />
	<path d="M 71.946 43.083 c -1.343 0 -2.648 -0.69 -3.381 -1.924 l -6.608 -11.133 c -1.108 -1.865 -0.493 -4.276 1.372 -5.383 c 1.866 -1.107 4.277 -0.492 5.383 1.373 l 4.664 7.857 l 10.793 -5.967 c 1.9 -1.05 4.289 -0.361 5.339 1.537 c 1.049 1.899 0.362 4.289 -1.537 5.339 l -14.128 7.81 C 73.242 42.925 72.59 43.083 71.946 43.083 z" style="stroke: none; stroke-width: 1; stroke-dasharray: none; stroke-linecap: butt; stroke-linejoin: miter; stroke-miterlimit: 10; fill: rgb(255,0,0); fill-rule: nonzero; opacity: 1;" transform=" matrix(1 0 0 1 0 0) " stroke-linecap="round" />
	<circle cx="76.622" cy="19.962" r="6.782" style="stroke: none; stroke-width: 1; stroke-dasharray: none; stroke-linecap: butt; stroke-linejoin: miter; stroke-miterlimit: 10; fill: rgb(255,0,0); fill-rule: nonzero; opacity: 1;" transform="  matrix(1 0 0 1 0 0) "/>
	<path d="M 57.856 56.365 c -0.504 0 -1.017 -0.098 -1.511 -0.304 l -14.943 -6.235 c -2.002 -0.835 -2.948 -3.136 -2.112 -5.138 c 0.836 -2.002 3.137 -2.946 5.138 -2.112 L 59.37 48.81 c 2.003 0.835 2.948 3.136 2.113 5.138 C 60.854 55.455 59.394 56.365 57.856 56.365 z" style="stroke: none; stroke-width: 1; stroke-dasharray: none; stroke-linecap: butt; stroke-linejoin: miter; stroke-miterlimit: 10; fill: rgb(255,0,0); fill-rule: nonzero; opacity: 1;" transform=" matrix(1 0 0 1 0 0) " stroke-linecap="round" />
	<path d="M 50.014 76.82 c -0.467 0 -0.943 -0.083 -1.405 -0.261 c -2.026 -0.777 -3.039 -3.049 -2.262 -5.075 l 7.842 -20.456 c 0.777 -2.026 3.048 -3.04 5.075 -2.263 s 3.038 3.049 2.263 5.075 l -7.843 20.456 C 53.084 75.86 51.594 76.82 50.014 76.82 z" style="stroke: none; stroke-width: 1; stroke-dasharray: none; stroke-linecap: butt; stroke-linejoin: miter; stroke-miterlimit: 10; fill: rgb(255,0,0); fill-rule: nonzero; opacity: 1;" transform=" matrix(1 0 0 1 0 0) " stroke-linecap="round" />
	<path d="M 31.603 45.981 H 1.964 C 0.879 45.981 0 45.102 0 44.017 c 0 -1.085 0.879 -1.964 1.964 -1.964 h 29.639 c 1.085 0 1.964 0.879 1.964 1.964 C 33.568 45.102 32.688 45.981 31.603 45.981 z" style="stroke: none; stroke-width: 1; stroke-dasharray: none; stroke-linecap: butt; stroke-linejoin: miter; stroke-miterlimit: 10; fill: rgb(199,199,199); fill-rule: nonzero; opacity: 1;" transform=" matrix(1 0 0 1 0 0) " stroke-linecap="round" />
	<path d="M 27.581 35.524 H 9.204 c -1.085 0 -1.964 -0.879 -1.964 -1.964 s 0.879 -1.964 1.964 -1.964 h 18.377 c 1.085 0 1.964 0.879 1.964 1.964 S 28.666 35.524 27.581 35.524 z" style="stroke: none; stroke-width: 1; stroke-dasharray: none; stroke-linecap: butt; stroke-linejoin: miter; stroke-miterlimit: 10; fill: rgb(199,199,199); fill-rule: nonzero; opacity: 1;" transform=" matrix(1 0 0 1 0 0) " stroke-linecap="round" />
	<path d="M 25.168 56.438 H 9.204 c -1.085 0 -1.964 -0.879 -1.964 -1.964 s 0.879 -1.964 1.964 -1.964 h 15.964 c 1.085 0 1.964 0.879 1.964 1.964 S 26.253 56.438 25.168 56.438 z" style="stroke: none; stroke-width: 1; stroke-dasharray: none; stroke-linecap: butt; stroke-linejoin: miter; stroke-miterlimit: 10; fill: rgb(199,199,199); fill-rule: nonzero; opacity: 1;" transform=" matrix(1 0 0 1 0 0) " stroke-linecap="round" />
</g>
</g>
</svg>